Avara Bold.ufo
<glyph name="exclam" format="1">
  <advance width="240"/>
  <unicode hex="0021"/>
  <outline>
    <contour>
      <point x="0" y="760" type="line"/>
      <point x="0" y="640" type="line"/>
      <point x="40" y="240" type="line"/>
      <point x="100" y="240" type="line"/>
      <point x="180" y="640" type="line"/>
      <point x="180" y="760" type="line"/>
      <point x="120" y="800" type="line"/>
      <point x="60" y="800" type="line"/>
    </contour>
    <contour>
      <point x="100" y="0" type="line"/>
      <point x="160" y="0" type="line"/>
      <point x="200" y="80" type="line"/>
      <point x="200" y="160" type="line"/>
      <point x="100" y="200" type="line"/>
      <point x="40" y="200" type="line"/>
      <point x="0" y="100" type="line"/>
      <point x="0" y="40" type="line"/>
    </contour>
  </outline>
</glyph>
<glyph name="comma" format="1">
  <advance width="260"/>
  <unicode hex="002C"/>
  <outline>
    <contour>
      <point x="120" y="0" type="line"/>
      <point x="100" y="-80" type="line"/>
      <point x="0" y="-80" type="line"/>
      <point x="0" y="-120" type="line"/>
      <point x="140" y="-120" type="line"/>
      <point x="180" y="0" type="line"/>
      <point x="220" y="100" type="line"/>
      <point x="220" y="160" type="line"/>
      <point x="120" y="200" type="line"/>
      <point x="60" y="200" type="line"/>
      <point x="20" y="100" type="line"/>
      <point x="20" y="40" type="line"/>
    </contour>
  </outline>
</glyph>
<glyph name="period" format="1">
  <advance width="240"/>
  <unicode hex="002E"/>
  <outline>
    <contour>
      <point x="160" y="0" type="line"/>
      <point x="200" y="100" type="line"/>
      <point x="200" y="160" type="line"/>
      <point x="100" y="200" type="line"/>
      <point x="40" y="200" type="line"/>
      <point x="0" y="100" type="line"/>
      <point x="0" y="40" type="line"/>
      <point x="100" y="0" type="line"/>
    </contour>
  </outline>
</glyph>
<glyph name="zero" format="1">
  <advance width="720"/>
  <unicode hex="0030"/>
  <outline>
    <contour>
      <point x="500" y="560" type="line"/>
      <point x="440" y="700" type="line"/>
      <point x="360" y="740" type="line"/>
      <point x="280" y="700" type="line"/>
      <point x="220" y="560" type="line"/>
      <point x="220" y="240" type="line"/>
      <point x="280" y="100" type="line"/>
      <point x="360" y="60" type="line"/>
      <point x="440" y="100" type="line"/>
      <point x="500" y="240" type="line"/>
    </contour>
    <contour>
      <point x="580" y="80" type="line"/>
      <point x="400" y="0" type="line"/>
      <point x="320" y="0" type="line"/>
      <point x="140" y="80" type="line"/>
      <point x="60" y="200" type="line"/>
      <point x="20" y="400" type="line"/>
      <point x="60" y="600" type="line"/>
      <point x="140" y="720" type="line"/>
      <point x="320" y="800" type="line"/>
      <point x="400" y="800" type="line"/>
      <point x="580" y="720" type="line"/>
      <point x="660" y="600" type="line"/>
      <point x="700" y="400" type="line"/>
      <point x="660" y="200" type="line"/>
    </contour>
  </outline>
</glyph>
<glyph name="one" format="1">
  <advance width="400"/>
  <unicode hex="0031"/>
  <outline>
    <contour>
      <point x="180" y="760" type="line"/>
      <point x="300" y="800" type="line"/>
      <point x="300" y="80" type="line"/>
      <point x="380" y="0" type="line"/>
      <point x="60" y="0" type="line"/>
      <point x="140" y="80" type="line"/>
      <point x="140" y="600" type="line"/>
      <point x="20" y="600" type="line"/>
      <point x="20" y="640" type="line"/>
      <point x="100" y="680" type="line"/>
    </contour>
  </outline>
</glyph>
<glyph name="two" format="1">
  <advance width="640"/>
  <unicode hex="0032"/>
  <outline>
    <contour>
      <point x="220" y="640" type="line"/>
      <point x="220" y="480" type="line"/>
      <point x="140" y="480" type="line"/>
      <point x="60" y="600" type="line"/>
      <point x="120" y="740" type="line"/>
      <point x="280" y="800" type="line"/>
      <point x="400" y="800" type="line"/>
      <point x="540" y="760" type="line"/>
      <point x="620" y="640" type="line"/>
      <point x="620" y="560" type="line"/>
      <point x="580" y="440" type="line"/>
      <point x="500" y="360" type="line"/>
      <point x="200" y="100" type="line"/>
      <point x="440" y="60" type="line"/>
      <point x="560" y="240" type="line"/>
      <point x="620" y="240" type="line"/>
      <point x="580" y="-40" type="line"/>
      <point x="480" y="0" type="line"/>
      <point x="20" y="0" type="line"/>
      <point x="20" y="40" type="line"/>
      <point x="140" y="160" type="line"/>
      <point x="420" y="480" type="line"/>
      <point x="460" y="560" type="line"/>
      <point x="460" y="600" type="line"/>
      <point x="420" y="680" type="line"/>
      <point x="360" y="700" type="line"/>
      <point x="280" y="700" type="line"/>
    </contour>
  </outline>
</glyph>
<glyph name="four" format="1">
  <advance width="640"/>
  <unicode hex="0034"/>
  <outline>
    <contour>
      <point x="380" y="260" type="line"/>
      <point x="380" y="680" type="line"/>
      <point x="180" y="280" type="line"/>
    </contour>
    <contour>
      <point x="340" y="780" type="line"/>
      <point x="540" y="800" type="line"/>
      <point x="540" y="260" type="line"/>
      <point x="620" y="260" type="line"/>
      <point x="620" y="180" type="line"/>
      <point x="540" y="180" type="line"/>
      <point x="540" y="80" type="line"/>
      <point x="620" y="0" type="line"/>
      <point x="300" y="0" type="line"/>
      <point x="380" y="80" type="line"/>
      <point x="380" y="180" type="line"/>
      <point x="80" y="180" type="line"/>
      <point x="20" y="280" type="line"/>
    </contour>
  </outline>
</glyph>
<glyph name="five" format="1">
  <advance width="640"/>
  <unicode hex="0035"/>
  <outline>
    <contour>
      <point x="560" y="660" type="line"/>
      <point x="220" y="660" type="line"/>
      <point x="180" y="500" type="line"/>
      <point x="240" y="540" type="line"/>
      <point x="400" y="540" type="line"/>
      <point x="560" y="460" type="line"/>
      <point x="620" y="320" type="line"/>
      <point x="620" y="200" type="line"/>
      <point x="540" y="80" type="line"/>
      <point x="380" y="0" type="line"/>
      <point x="260" y="0" type="line"/>
      <point x="100" y="40" type="line"/>
      <point x="20" y="120" type="line"/>
      <point x="20" y="200" type="line"/>
      <point x="120" y="300" type="line"/>
      <point x="180" y="300" type="line"/>
      <point x="180" y="160" type="line"/>
      <point x="200" y="100" type="line"/>
      <point x="320" y="60" type="line"/>
      <point x="400" y="100" type="line"/>
      <point x="460" y="240" type="line"/>
      <point x="460" y="360" type="line"/>
      <point x="360" y="460" type="line"/>
      <point x="240" y="460" type="line"/>
      <point x="140" y="400" type="line"/>
      <point x="60" y="400" type="line"/>
      <point x="140" y="800" type="line"/>
      <point x="580" y="800" type="line"/>
    </contour>
  </outline>
</glyph>
<glyph name="six" format="1">
  <advance width="640"/>
  <unicode hex="0036"/>
  <outline>
    <contour>
      <point x="180" y="440" type="line"/>
      <point x="240" y="500" type="line"/>
      <point x="360" y="540" type="line"/>
      <point x="520" y="460" type="line"/>
      <point x="620" y="280" type="line"/>
      <point x="540" y="80" type="line"/>
      <point x="380" y="0" type="line"/>
      <point x="220" y="0" type="line"/>
      <point x="100" y="80" type="line"/>
      <point x="20" y="200" type="line"/>
      <point x="20" y="440" type="line"/>
      <point x="120" y="660" type="line"/>
      <point x="240" y="780" type="line"/>
      <point x="440" y="800" type="line"/>
      <point x="580" y="760" type="line"/>
      <point x="580" y="680" type="line"/>
      <point x="500" y="560" type="line"/>
      <point x="420" y="560" type="line"/>
      <point x="420" y="740" type="line"/>
      <point x="280" y="700" type="line"/>
      <point x="220" y="600" type="line"/>
    </contour>
    <contour>
      <point x="220" y="360" type="line"/>
      <point x="180" y="280" type="line"/>
      <point x="180" y="240" type="line"/>
      <point x="220" y="160" type="line"/>
      <point x="280" y="100" type="line"/>
      <point x="360" y="100" type="line"/>
      <point x="420" y="160" type="line"/>
      <point x="460" y="240" type="line"/>
      <point x="460" y="280" type="line"/>
      <point x="420" y="360" type="line"/>
      <point x="360" y="420" type="line"/>
      <point x="280" y="420" type="line"/>
    </contour>
  </outline>
</glyph>
<glyph name="seven" format="1">
  <advance width="600"/>
  <unicode hex="0037"/>
  <outline>
    <contour>
      <point x="340" y="320" type="line"/>
      <point x="300" y="0" type="line"/>
      <point x="100" y="0" type="line"/>
      <point x="180" y="280" type="line"/>
      <point x="260" y="440" type="line"/>
      <point x="380" y="640" type="line"/>
      <point x="460" y="740" type="line"/>
      <point x="240" y="740" type="line"/>
      <point x="180" y="720" type="line"/>
      <point x="180" y="560" type="line"/>
      <point x="100" y="560" type="line"/>
      <point x="20" y="680" type="line"/>
      <point x="20" y="800" type="line"/>
      <point x="580" y="800" type="line"/>
      <point x="580" y="760" type="line"/>
      <point x="500" y="640" type="line"/>
      <point x="380" y="440" type="line"/>
    </contour>
  </outline>
</glyph>
<glyph name="eight" format="1">
  <advance width="640"/>
  <unicode hex="0038"/>
  <outline>
    <contour>
      <point x="220" y="480" type="line"/>
      <point x="100" y="520" type="line"/>
      <point x="60" y="600" type="line"/>
      <point x="60" y="680" type="line"/>
      <point x="140" y="760" type="line"/>
      <point x="280" y="800" type="line"/>
      <point x="360" y="800" type="line"/>
      <point x="500" y="760" type="line"/>
      <point x="580" y="680" type="line"/>
      <point x="580" y="600" type="line"/>
      <point x="540" y="520" type="line"/>
      <point x="420" y="440" type="line"/>
      <point x="540" y="400" type="line"/>
      <point x="620" y="240" type="line"/>
      <point x="540" y="80" type="line"/>
      <point x="380" y="0" type="line"/>
      <point x="260" y="0" type="line"/>
      <point x="100" y="80" type="line"/>
      <point x="20" y="240" type="line"/>
      <point x="100" y="440" type="line"/>
    </contour>
    <contour>
      <point x="220" y="360" type="line"/>
      <point x="180" y="280" type="line"/>
      <point x="180" y="200" type="line"/>
      <point x="240" y="140" type="line"/>
      <point x="320" y="100" type="line"/>
      <point x="400" y="140" type="line"/>
      <point x="460" y="200" type="line"/>
      <point x="460" y="280" type="line"/>
      <point x="420" y="360" type="line"/>
      <point x="360" y="420" type="line"/>
    </contour>
    <contour>
      <point x="320" y="740" type="line"/>
      <point x="240" y="700" type="line"/>
      <point x="220" y="640" type="line"/>
      <point x="220" y="560" type="line"/>
      <point x="280" y="500" type="line"/>
      <point x="380" y="520" type="line"/>
      <point x="420" y="560" type="line"/>
      <point x="420" y="640" type="line"/>
      <point x="400" y="700" type="line"/>
    </contour>
  </outline>
</glyph>
<glyph name="nine" format="1">
  <advance width="640"/>
  <unicode hex="0039"/>
  <outline>
    <contour>
      <point x="460" y="360" type="line"/>
      <point x="420" y="320" type="line"/>
      <point x="280" y="260" type="line"/>
      <point x="100" y="360" type="line"/>
      <point x="20" y="520" type="line"/>
      <point x="100" y="720" type="line"/>
      <point x="280" y="800" type="line"/>
      <point x="400" y="800" type="line"/>
      <point x="540" y="720" type="line"/>
      <point x="620" y="600" type="line"/>
      <point x="620" y="360" type="line"/>
      <point x="540" y="160" type="line"/>
      <point x="400" y="20" type="line"/>
      <point x="180" y="0" type="line"/>
      <point x="60" y="40" type="line"/>
      <point x="60" y="120" type="line"/>
      <point x="140" y="240" type="line"/>
      <point x="220" y="240" type="line"/>
      <point x="220" y="60" type="line"/>
      <point x="360" y="100" type="line"/>
      <point x="420" y="200" type="line"/>
    </contour>
    <contour>
      <point x="420" y="440" type="line"/>
      <point x="460" y="520" type="line"/>
      <point x="460" y="560" type="line"/>
      <point x="420" y="640" type="line"/>
      <point x="360" y="700" type="line"/>
      <point x="280" y="700" type="line"/>
      <point x="220" y="640" type="line"/>
      <point x="180" y="560" type="line"/>
      <point x="180" y="520" type="line"/>
      <point x="220" y="440" type="line"/>
      <point x="280" y="380" type="line"/>
      <point x="360" y="380" type="line"/>
    </contour>
  </outline>
</glyph>
<glyph name="colon" format="1">
  <advance width="240"/>
  <unicode hex="003A"/>
  <outline>
    <contour>
      <point x="160" y="360" type="line"/>
      <point x="200" y="460" type="line"/>
      <point x="200" y="520" type="line"/>
      <point x="100" y="560" type="line"/>
      <point x="40" y="560" type="line"/>
      <point x="0" y="460" type="line"/>
      <point x="0" y="400" type="line"/>
      <point x="100" y="360" type="line"/>
    </contour>
    <contour>
      <point x="160" y="0" type="line"/>
      <point x="200" y="100" type="line"/>
      <point x="200" y="160" type="line"/>
      <point x="100" y="200" type="line"/>
      <point x="40" y="200" type="line"/>
      <point x="0" y="100" type="line"/>
      <point x="0" y="40" type="line"/>
      <point x="100" y="0" type="line"/>
    </contour>
  </outline>
</glyph>
<glyph name="semicolon" format="1">
  <advance width="260"/>
  <unicode hex="003B"/>
  <outline>
    <contour>
      <point x="180" y="360" type="line"/>
      <point x="220" y="460" type="line"/>
      <point x="220" y="520" type="line"/>
      <point x="120" y="560" type="line"/>
      <point x="60" y="560" type="line"/>
      <point x="20" y="460" type="line"/>
      <point x="20" y="400" type="line"/>
      <point x="120" y="360" type="line"/>
    </contour>
    <contour>
      <point x="120" y="0" type="line"/>
      <point x="100" y="-80" type="line"/>
      <point x="0" y="-80" type="line"/>
      <point x="0" y="-120" type="line"/>
      <point x="140" y="-120" type="line"/>
      <point x="180" y="0" type="line"/>
      <point x="220" y="100" type="line"/>
      <point x="220" y="160" type="line"/>
      <point x="120" y="200" type="line"/>
      <point x="60" y="200" type="line"/>
      <point x="20" y="100" type="line"/>
      <point x="20" y="40" type="line"/>
    </contour>
  </outline>
</glyph>
<glyph name="at" format="1">
  <advance width="1020"/>
  <unicode hex="0040"/>
  <outline>
    <contour>
      <point x="600" y="420" type="line"/>
      <point x="500" y="420" type="line"/>
      <point x="460" y="380" type="line"/>
      <point x="440" y="240" type="line"/>
      <point x="480" y="140" type="line"/>
      <point x="540" y="100" type="line"/>
      <point x="560" y="160" type="line"/>
    </contour>
    <contour>
      <point x="40" y="280" type="line"/>
      <point x="80" y="480" type="line"/>
      <point x="200" y="620" type="line"/>
      <point x="400" y="700" type="line"/>
      <point x="680" y="700" type="line"/>
      <point x="840" y="620" type="line"/>
      <point x="940" y="480" type="line"/>
      <point x="980" y="280" type="line"/>
      <point x="900" y="120" type="line"/>
      <point x="820" y="40" type="line"/>
      <point x="720" y="-20" type="line"/>
      <point x="620" y="80" type="line"/>
      <point x="580" y="20" type="line"/>
      <point x="420" y="-20" type="line"/>
      <point x="280" y="160" type="line"/>
      <point x="280" y="320" type="line"/>
      <point x="320" y="460" type="line"/>
      <point x="440" y="540" type="line"/>
      <point x="600" y="500" type="line"/>
      <point x="660" y="540" type="line"/>
      <point x="740" y="540" type="line"/>
      <point x="700" y="200" type="line"/>
      <point x="760" y="80" type="line"/>
      <point x="840" y="200" type="line"/>
      <point x="840" y="460" type="line"/>
      <point x="740" y="600" type="line"/>
      <point x="580" y="640" type="line"/>
      <point x="460" y="640" type="line"/>
      <point x="300" y="580" type="line"/>
      <point x="200" y="440" type="line"/>
      <point x="200" y="120" type="line"/>
      <point x="260" y="20" type="line"/>
      <point x="380" y="-80" type="line"/>
      <point x="520" y="-120" type="line"/>
      <point x="480" y="-160" type="line"/>
      <point x="340" y="-140" type="line"/>
      <point x="180" y="-60" type="line"/>
      <point x="80" y="80" type="line"/>
    </contour>
  </outline>
</glyph>
<glyph name="A" format="1">
  <advance width="860"/>
  <unicode hex="0041"/>
  <outline>
    <contour>
      <point x="300" y="0" type="line"/>
      <point x="60" y="0" type="line"/>
      <point x="140" y="80" type="line"/>
      <point x="360" y="720" type="line"/>
      <point x="360" y="740" type="line"/>
      <point x="480" y="840" type="line"/>
      <point x="760" y="80" type="line"/>
      <point x="840" y="0" type="line"/>
      <point x="540" y="0" type="line"/>
      <point x="580" y="80" type="line"/>
      <point x="520" y="240" type="line"/>
      <point x="280" y="240" type="line"/>
      <point x="220" y="80" type="line"/>
    </contour>
    <contour>
      <point x="400" y="600" type="line"/>
      <point x="300" y="300" type="line"/>
      <point x="500" y="300" type="line"/>
    </contour>
  </outline>
</glyph>
<glyph name="B" format="1">
  <advance width="800"/>
  <unicode hex="0042"/>
  <outline>
    <contour>
      <point x="20" y="800" type="line"/>
      <point x="420" y="800" type="line"/>
      <point x="660" y="760" type="line"/>
      <point x="740" y="600" type="line"/>
      <point x="660" y="480" type="line"/>
      <point x="540" y="440" type="line"/>
      <point x="700" y="400" type="line"/>
      <point x="780" y="240" type="line"/>
      <point x="700" y="80" type="line"/>
      <point x="500" y="0" type="line"/>
      <point x="20" y="0" type="line"/>
      <point x="100" y="80" type="line"/>
      <point x="100" y="720" type="line"/>
    </contour>
    <contour>
      <point x="320" y="740" type="line"/>
      <point x="260" y="680" type="line"/>
      <point x="260" y="460" type="line"/>
      <point x="340" y="460" type="line"/>
      <point x="500" y="500" type="line"/>
      <point x="540" y="600" type="line"/>
      <point x="500" y="700" type="line"/>
      <point x="420" y="740" type="line"/>
    </contour>
    <contour>
      <point x="260" y="400" type="line"/>
      <point x="260" y="100" type="line"/>
      <point x="300" y="60" type="line"/>
      <point x="420" y="60" type="line"/>
      <point x="540" y="120" type="line"/>
      <point x="580" y="240" type="line"/>
      <point x="500" y="360" type="line"/>
      <point x="360" y="400" type="line"/>
    </contour>
  </outline>
</glyph>
<glyph name="C" format="1">
  <advance width="800"/>
  <unicode hex="0043"/>
  <outline>
    <contour>
      <point x="680" y="80" type="line"/>
      <point x="760" y="200" type="line"/>
      <point x="680" y="240" type="line"/>
      <point x="660" y="160" type="line"/>
      <point x="600" y="100" type="line"/>
      <point x="480" y="60" type="line"/>
      <point x="340" y="120" type="line"/>
      <point x="240" y="240" type="line"/>
      <point x="240" y="560" type="line"/>
      <point x="300" y="680" type="line"/>
      <point x="400" y="740" type="line"/>
      <point x="480" y="740" type="line"/>
      <point x="560" y="660" type="line"/>
      <point x="560" y="520" type="line"/>
      <point x="680" y="520" type="line"/>
      <point x="760" y="640" type="line"/>
      <point x="700" y="740" type="line"/>
      <point x="560" y="800" type="line"/>
      <point x="340" y="800" type="line"/>
      <point x="160" y="720" type="line"/>
      <point x="80" y="600" type="line"/>
      <point x="40" y="400" type="line"/>
      <point x="80" y="200" type="line"/>
      <point x="160" y="80" type="line"/>
      <point x="340" y="0" type="line"/>
      <point x="560" y="0" type="line"/>
    </contour>
  </outline>
</glyph>
<glyph name="D" format="1">
  <advance width="880"/>
  <unicode hex="0044"/>
  <outline>
    <contour>
      <point x="33" y="800" type="line"/>
      <point x="433" y="800" type="line"/>
      <point x="653" y="740" type="line"/>
      <point x="793" y="600" type="line"/>
      <point x="833" y="400" type="line"/>
      <point x="793" y="200" type="line"/>
      <point x="693" y="80" type="line"/>
      <point x="513" y="0" type="line"/>
      <point x="33" y="0" type="line"/>
      <point x="113" y="80" type="line"/>
      <point x="113" y="720" type="line"/>
    </contour>
    <contour>
      <point x="633" y="540" type="line"/>
      <point x="580" y="640" type="line"/>
      <point x="520" y="700" type="line"/>
      <point x="433" y="740" type="line"/>
      <point x="333" y="740" type="line"/>
      <point x="273" y="680" type="line"/>
      <point x="273" y="120" type="line"/>
      <point x="333" y="60" type="line"/>
      <point x="480" y="60" type="line"/>
      <point x="580" y="100" type="line"/>
      <point x="633" y="200" type="line"/>
    </contour>
  </outline>
</glyph>
<glyph name="F" format="1">
  <advance width="700"/>
  <unicode hex="0046"/>
  <outline>
    <contour>
      <point x="40" y="0" type="line"/>
      <point x="120" y="80" type="line"/>
      <point x="120" y="720" type="line"/>
      <point x="40" y="800" type="line"/>
      <point x="480" y="800" type="line"/>
      <point x="640" y="840" type="line"/>
      <point x="680" y="600" type="line"/>
      <point x="640" y="600" type="line"/>
      <point x="520" y="740" type="line"/>
      <point x="320" y="740" type="line"/>
      <point x="280" y="700" type="line"/>
      <point x="280" y="500" type="line"/>
      <point x="320" y="460" type="line"/>
      <point x="480" y="460" type="line"/>
      <point x="560" y="540" type="line"/>
      <point x="560" y="320" type="line"/>
      <point x="480" y="400" type="line"/>
      <point x="320" y="400" type="line"/>
      <point x="280" y="360" type="line"/>
      <point x="280" y="80" type="line"/>
      <point x="360" y="0" type="line"/>
    </contour>
    <contour>
      <point x="1480" y="-40" type="line"/>
    </contour>
  </outline>
</glyph>
<glyph name="G" format="1">
  <advance width="900"/>
  <unicode hex="0047"/>
  <outline>
    <contour>
      <point x="240" y="260" type="line"/>
      <point x="300" y="140" type="line"/>
      <point x="480" y="60" type="line"/>
      <point x="600" y="100" type="line"/>
      <point x="620" y="140" type="line"/>
      <point x="620" y="280" type="line"/>
      <point x="540" y="360" type="line"/>
      <point x="860" y="360" type="line"/>
      <point x="780" y="280" type="line"/>
      <point x="780" y="80" type="line"/>
      <point x="680" y="40" type="line"/>
      <point x="560" y="0" type="line"/>
      <point x="360" y="0" type="line"/>
      <point x="160" y="80" type="line"/>
      <point x="80" y="200" type="line"/>
      <point x="40" y="400" type="line"/>
      <point x="80" y="600" type="line"/>
      <point x="160" y="720" type="line"/>
      <point x="360" y="800" type="line"/>
      <point x="580" y="800" type="line"/>
      <point x="720" y="740" type="line"/>
      <point x="780" y="640" type="line"/>
      <point x="700" y="520" type="line"/>
      <point x="580" y="520" type="line"/>
      <point x="580" y="660" type="line"/>
      <point x="500" y="740" type="line"/>
      <point x="400" y="740" type="line"/>
      <point x="300" y="680" type="line"/>
      <point x="240" y="560" type="line"/>
    </contour>
  </outline>
</glyph>
<glyph name="H" format="1">
  <advance width="980"/>
  <unicode hex="0048"/>
  <outline>
    <contour>
      <point x="360" y="800" type="line"/>
      <point x="280" y="720" type="line"/>
      <point x="280" y="500" type="line"/>
      <point x="320" y="460" type="line"/>
      <point x="660" y="460" type="line"/>
      <point x="700" y="500" type="line"/>
      <point x="700" y="720" type="line"/>
      <point x="620" y="800" type="line"/>
      <point x="940" y="800" type="line"/>
      <point x="860" y="720" type="line"/>
      <point x="860" y="80" type="line"/>
      <point x="940" y="0" type="line"/>
      <point x="620" y="0" type="line"/>
      <point x="700" y="80" type="line"/>
      <point x="700" y="360" type="line"/>
      <point x="660" y="400" type="line"/>
      <point x="320" y="400" type="line"/>
      <point x="280" y="360" type="line"/>
      <point x="280" y="80" type="line"/>
      <point x="360" y="0" type="line"/>
      <point x="40" y="0" type="line"/>
      <point x="120" y="80" type="line"/>
      <point x="120" y="720" type="line"/>
      <point x="40" y="800" type="line"/>
    </contour>
  </outline>
</glyph>
<glyph name="I" format="1">
  <advance width="400"/>
  <unicode hex="0049"/>
  <outline>
    <contour>
      <point x="280" y="80" type="line"/>
      <point x="360" y="0" type="line"/>
      <point x="40" y="0" type="line"/>
      <point x="120" y="80" type="line"/>
      <point x="120" y="720" type="line"/>
      <point x="40" y="800" type="line"/>
      <point x="360" y="800" type="line"/>
      <point x="280" y="720" type="line"/>
    </contour>
  </outline>
</glyph>
<glyph name="J" format="1">
  <advance width="440"/>
  <unicode hex="004A"/>
  <outline>
    <contour>
      <point x="0" y="-80" type="line"/>
      <point x="120" y="40" type="line"/>
      <point x="160" y="120" type="line"/>
      <point x="160" y="720" type="line"/>
      <point x="80" y="800" type="line"/>
      <point x="400" y="800" type="line"/>
      <point x="320" y="720" type="line"/>
      <point x="320" y="120" type="line"/>
      <point x="220" y="-20" type="line"/>
      <point x="40" y="-120" type="line"/>
    </contour>
  </outline>
</glyph>
<glyph name="K" format="1">
  <advance width="840"/>
  <unicode hex="004B"/>
  <outline>
    <contour>
      <point x="720" y="-40" type="line"/>
      <point x="780" y="20" type="line"/>
      <point x="540" y="380" type="line"/>
      <point x="360" y="400" type="line"/>
      <point x="760" y="800" type="line"/>
      <point x="480" y="800" type="line"/>
      <point x="560" y="700" type="line"/>
      <point x="280" y="420" type="line"/>
      <point x="280" y="720" type="line"/>
      <point x="360" y="800" type="line"/>
      <point x="40" y="800" type="line"/>
      <point x="120" y="720" type="line"/>
      <point x="120" y="80" type="line"/>
      <point x="40" y="0" type="line"/>
      <point x="360" y="0" type="line"/>
      <point x="280" y="80" type="line"/>
      <point x="280" y="320" type="line"/>
      <point x="320" y="360" type="line"/>
      <point x="400" y="300" type="line"/>
      <point x="560" y="60" type="line"/>
    </contour>
  </outline>
</glyph>
<glyph name="L" format="1">
  <advance width="720"/>
  <unicode hex="004C"/>
  <outline>
    <contour>
      <point x="560" y="0" type="line"/>
      <point x="40" y="0" type="line"/>
      <point x="120" y="80" type="line"/>
      <point x="120" y="720" type="line"/>
      <point x="40" y="800" type="line"/>
      <point x="360" y="800" type="line"/>
      <point x="280" y="720" type="line"/>
      <point x="280" y="100" type="line"/>
      <point x="320" y="60" type="line"/>
      <point x="520" y="60" type="line"/>
      <point x="640" y="240" type="line"/>
      <point x="680" y="240" type="line"/>
      <point x="640" y="-40" type="line"/>
    </contour>
  </outline>
</glyph>
<glyph name="M" format="1">
  <advance width="1120"/>
  <unicode hex="004D"/>
  <outline>
    <contour>
      <point x="520" y="0" type="line" smooth="yes"/>
      <point x="760" y="600" type="line"/>
      <point x="760" y="80" type="line"/>
      <point x="680" y="0" type="line"/>
      <point x="1000" y="0" type="line"/>
      <point x="920" y="80" type="line"/>
      <point x="920" y="720" type="line"/>
      <point x="1000" y="800" type="line"/>
      <point x="740" y="800" type="line"/>
      <point x="520" y="300" type="line"/>
      <point x="340" y="800" type="line"/>
      <point x="40" y="800" type="line"/>
      <point x="120" y="720" type="line"/>
      <point x="120" y="80" type="line"/>
      <point x="40" y="0" type="line"/>
      <point x="300" y="0" type="line"/>
      <point x="220" y="80" type="line"/>
      <point x="220" y="640" type="line"/>
      <point x="480" y="-40" type="line"/>
    </contour>
  </outline>
</glyph>
<glyph name="N" format="1">
  <advance width="920"/>
  <unicode hex="004E"/>
  <outline>
    <contour>
      <point x="660" y="-40" type="line"/>
      <point x="760" y="40" type="line"/>
      <point x="760" y="720" type="line"/>
      <point x="840" y="800" type="line"/>
      <point x="580" y="800" type="line"/>
      <point x="660" y="720" type="line"/>
      <point x="660" y="240" type="line"/>
      <point x="340" y="800" type="line"/>
      <point x="40" y="800" type="line"/>
      <point x="120" y="720" type="line"/>
      <point x="120" y="80" type="line"/>
      <point x="40" y="0" type="line"/>
      <point x="300" y="0" type="line"/>
      <point x="220" y="80" type="line"/>
      <point x="220" y="680" type="line"/>
    </contour>
  </outline>
</glyph>
<glyph name="O" format="1">
  <advance width="880"/>
  <unicode hex="004F"/>
  <outline>
    <contour>
      <point x="460" y="60" type="line"/>
      <point x="420" y="60" type="line"/>
      <point x="340" y="100" type="line"/>
      <point x="240" y="240" type="line"/>
      <point x="240" y="560" type="line"/>
      <point x="340" y="700" type="line"/>
      <point x="420" y="740" type="line"/>
      <point x="460" y="740" type="line"/>
      <point x="540" y="700" type="line"/>
      <point x="640" y="560" type="line"/>
      <point x="640" y="240" type="line"/>
      <point x="540" y="100" type="line"/>
    </contour>
    <contour>
      <point x="360" y="0" type="line"/>
      <point x="520" y="0" type="line"/>
      <point x="700" y="80" type="line"/>
      <point x="800" y="200" type="line"/>
      <point x="840" y="400" type="line"/>
      <point x="800" y="600" type="line"/>
      <point x="700" y="720" type="line"/>
      <point x="520" y="800" type="line"/>
      <point x="360" y="800" type="line"/>
      <point x="180" y="720" type="line"/>
      <point x="80" y="600" type="line"/>
      <point x="40" y="400" type="line"/>
      <point x="80" y="200" type="line"/>
      <point x="180" y="80" type="line"/>
    </contour>
  </outline>
</glyph>
<glyph name="P" format="1">
  <advance width="780"/>
  <unicode hex="0050"/>
  <outline>
    <contour>
      <point x="280" y="340" type="line" smooth="yes"/>
      <point x="280" y="80" type="line"/>
      <point x="360" y="0" type="line"/>
      <point x="40" y="0" type="line"/>
      <point x="120" y="80" type="line"/>
      <point x="120" y="720" type="line"/>
      <point x="40" y="800" type="line"/>
      <point x="440" y="800" type="line"/>
      <point x="660" y="760" type="line"/>
      <point x="740" y="600" type="line"/>
      <point x="640" y="380" type="line"/>
      <point x="440" y="320" type="line"/>
    </contour>
    <contour>
      <point x="320" y="740" type="line"/>
      <point x="280" y="700" type="line"/>
      <point x="280" y="400" type="line"/>
      <point x="380" y="400" type="line"/>
      <point x="480" y="440" type="line"/>
      <point x="520" y="600" type="line"/>
      <point x="480" y="700" type="line"/>
      <point x="400" y="740" type="line"/>
    </contour>
  </outline>
</glyph>
<glyph name="Q" format="1">
  <advance width="920"/>
  <unicode hex="0051"/>
  <outline>
    <contour>
      <point x="580" y="0" type="line"/>
      <point x="700" y="-80" type="line"/>
      <point x="820" y="-120" type="line"/>
      <point x="940" y="-120" type="line"/>
      <point x="940" y="-160" type="line"/>
      <point x="760" y="-200" type="line"/>
      <point x="600" y="-160" type="line"/>
      <point x="520" y="-80" type="line"/>
      <point x="480" y="0" type="line"/>
      <point x="340" y="0" type="line"/>
      <point x="180" y="80" type="line"/>
      <point x="80" y="200" type="line"/>
      <point x="40" y="400" type="line"/>
      <point x="80" y="600" type="line"/>
      <point x="180" y="720" type="line"/>
      <point x="340" y="800" type="line"/>
      <point x="580" y="800" type="line"/>
      <point x="740" y="720" type="line"/>
      <point x="840" y="600" type="line"/>
      <point x="880" y="400" type="line"/>
      <point x="840" y="200" type="line"/>
      <point x="740" y="80" type="line"/>
    </contour>
    <contour>
      <point x="500" y="60" type="line"/>
      <point x="600" y="120" type="line"/>
      <point x="680" y="240" type="line"/>
      <point x="680" y="560" type="line"/>
      <point x="600" y="680" type="line"/>
      <point x="500" y="740" type="line"/>
      <point x="420" y="740" type="line"/>
      <point x="320" y="680" type="line"/>
      <point x="240" y="560" type="line"/>
      <point x="240" y="240" type="line"/>
      <point x="320" y="120" type="line"/>
      <point x="420" y="60" type="line"/>
    </contour>
  </outline>
</glyph>
<glyph name="R" format="1">
  <advance width="800"/>
  <unicode hex="0052"/>
  <outline>
    <contour>
      <point x="40" y="800" type="line"/>
      <point x="440" y="800" type="line"/>
      <point x="640" y="760" type="line"/>
      <point x="720" y="600" type="line"/>
      <point x="640" y="440" type="line"/>
      <point x="400" y="400" type="line"/>
      <point x="540" y="360" type="line"/>
      <point x="760" y="20" type="line"/>
      <point x="700" y="-40" type="line"/>
      <point x="540" y="60" type="line"/>
      <point x="380" y="320" type="line"/>
      <point x="340" y="360" type="line"/>
      <point x="280" y="400" type="line"/>
      <point x="280" y="80" type="line"/>
      <point x="360" y="0" type="line"/>
      <point x="40" y="0" type="line"/>
      <point x="120" y="80" type="line"/>
      <point x="120" y="720" type="line"/>
    </contour>
    <contour>
      <point x="480" y="500" type="move"/>
      <point x="520" y="600" type="line"/>
      <point x="480" y="700" type="line"/>
      <point x="400" y="740" type="line"/>
      <point x="320" y="740" type="line"/>
      <point x="280" y="700" type="line"/>
      <point x="280" y="460" type="line"/>
      <point x="400" y="460" type="line"/>
      <point x="480" y="500" type="line"/>
    </contour>
  </outline>
</glyph>
<glyph name="S" format="1">
  <advance width="620"/>
  <unicode hex="0053"/>
  <outline>
    <contour>
      <point x="540" y="600" type="line"/>
      <point x="500" y="600" type="line"/>
      <point x="400" y="740" type="line"/>
      <point x="240" y="760" type="line"/>
      <point x="200" y="700" type="line"/>
      <point x="200" y="640" type="line"/>
      <point x="260" y="580" type="line"/>
      <point x="540" y="340" type="line"/>
      <point x="580" y="200" type="line"/>
      <point x="540" y="40" type="line"/>
      <point x="380" y="-40" type="line"/>
      <point x="180" y="0" type="line"/>
      <point x="80" y="-40" type="line"/>
      <point x="40" y="240" type="line"/>
      <point x="80" y="240" type="line"/>
      <point x="180" y="60" type="line"/>
      <point x="340" y="40" type="line"/>
      <point x="400" y="80" type="line"/>
      <point x="420" y="120" type="line"/>
      <point x="420" y="200" type="line"/>
      <point x="360" y="280" type="line"/>
      <point x="80" y="520" type="line"/>
      <point x="40" y="640" type="line"/>
      <point x="80" y="760" type="line"/>
      <point x="200" y="840" type="line"/>
      <point x="420" y="800" type="line"/>
      <point x="500" y="840" type="line"/>
    </contour>
  </outline>
</glyph>
<glyph name="T" format="1">
  <advance width="800"/>
  <unicode hex="0054"/>
  <outline>
    <contour>
      <point x="760" y="600" type="line"/>
      <point x="720" y="600" type="line"/>
      <point x="640" y="700" type="line"/>
      <point x="480" y="740" type="line"/>
      <point x="480" y="80" type="line"/>
      <point x="560" y="0" type="line"/>
      <point x="240" y="0" type="line"/>
      <point x="320" y="80" type="line"/>
      <point x="320" y="740" type="line"/>
      <point x="160" y="700" type="line"/>
      <point x="80" y="600" type="line"/>
      <point x="40" y="600" type="line"/>
      <point x="80" y="840" type="line"/>
      <point x="240" y="800" type="line"/>
      <point x="560" y="800" type="line"/>
      <point x="720" y="840" type="line"/>
    </contour>
  </outline>
</glyph>
<glyph name="U" format="1">
  <advance width="900"/>
  <unicode hex="0055"/>
  <outline>
    <contour>
      <point x="780" y="240" type="line"/>
      <point x="740" y="120" type="line"/>
      <point x="660" y="40" type="line"/>
      <point x="560" y="0" type="line"/>
      <point x="400" y="0" type="line"/>
      <point x="240" y="40" type="line"/>
      <point x="160" y="120" type="line"/>
      <point x="120" y="240" type="line"/>
      <point x="120" y="720" type="line"/>
      <point x="40" y="800" type="line"/>
      <point x="360" y="800" type="line"/>
      <point x="280" y="720" type="line"/>
      <point x="280" y="300" type="line"/>
      <point x="320" y="140" type="line"/>
      <point x="440" y="60" type="line"/>
      <point x="520" y="60" type="line"/>
      <point x="600" y="100" type="line"/>
      <point x="640" y="140" type="line"/>
      <point x="680" y="260" type="line"/>
      <point x="680" y="720" type="line"/>
      <point x="600" y="800" type="line"/>
      <point x="860" y="800" type="line"/>
      <point x="780" y="720" type="line"/>
    </contour>
  </outline>
</glyph>
<glyph name="V" format="1">
  <advance width="860"/>
  <unicode hex="0056"/>
  <outline>
    <contour>
      <point x="380" y="-40" type="line"/>
      <point x="440" y="0" type="line" smooth="yes"/>
      <point x="720" y="720" type="line"/>
      <point x="800" y="800" type="line"/>
      <point x="540" y="800" type="line"/>
      <point x="620" y="720" type="line"/>
      <point x="440" y="260" type="line"/>
      <point x="280" y="720" type="line"/>
      <point x="360" y="800" type="line"/>
      <point x="20" y="800" type="line"/>
      <point x="100" y="720" type="line"/>
    </contour>
  </outline>
</glyph>
<glyph name="W" format="1">
  <advance width="1200"/>
  <unicode hex="0057"/>
  <outline>
    <contour>
      <point x="760" y="-40" type="line"/>
      <point x="820" y="0" type="line"/>
      <point x="1040" y="700" type="line"/>
      <point x="1120" y="780" type="line"/>
      <point x="860" y="780" type="line"/>
      <point x="940" y="700" type="line"/>
      <point x="840" y="280" type="line"/>
      <point x="700" y="760" type="line"/>
      <point x="560" y="700" type="line"/>
      <point x="420" y="280" type="line"/>
      <point x="400" y="340" type="line"/>
      <point x="280" y="720" type="line" smooth="yes"/>
      <point x="360" y="800" type="line"/>
      <point x="20" y="800" type="line"/>
      <point x="100" y="720" type="line"/>
      <point x="340" y="-40" type="line"/>
      <point x="400" y="0" type="line"/>
      <point x="600" y="520" type="line"/>
    </contour>
  </outline>
</glyph>
<glyph name="X" format="1">
  <advance width="880"/>
  <unicode hex="0058"/>
  <outline>
    <contour>
      <point x="620" y="720" type="line"/>
      <point x="540" y="800" type="line"/>
      <point x="840" y="800" type="line"/>
      <point x="760" y="720" type="line"/>
      <point x="540" y="400" type="line"/>
      <point x="760" y="80" type="line"/>
      <point x="840" y="0" type="line"/>
      <point x="500" y="0" type="line"/>
      <point x="580" y="80" type="line"/>
      <point x="440" y="360" type="line"/>
      <point x="420" y="360" type="line"/>
      <point x="260" y="80" type="line"/>
      <point x="340" y="0" type="line"/>
      <point x="40" y="0" type="line"/>
      <point x="120" y="80" type="line"/>
      <point x="340" y="400" type="line"/>
      <point x="120" y="720" type="line"/>
      <point x="40" y="800" type="line"/>
      <point x="380" y="800" type="line"/>
      <point x="300" y="720" type="line"/>
      <point x="440" y="440" type="line"/>
      <point x="460" y="440" type="line"/>
    </contour>
  </outline>
</glyph>
<glyph name="Y" format="1">
  <advance width="780"/>
  <unicode hex="0059"/>
  <outline>
    <contour>
      <point x="420" y="440" type="line"/>
      <point x="460" y="440" type="line"/>
      <point x="580" y="720" type="line"/>
      <point x="500" y="800" type="line"/>
      <point x="760" y="800" type="line"/>
      <point x="680" y="720" type="line"/>
      <point x="480" y="360" type="line"/>
      <point x="480" y="80" type="line"/>
      <point x="560" y="0" type="line"/>
      <point x="220" y="0" type="line"/>
      <point x="300" y="80" type="line"/>
      <point x="300" y="360" type="line"/>
      <point x="100" y="720" type="line"/>
      <point x="20" y="800" type="line"/>
      <point x="340" y="800" type="line"/>
      <point x="260" y="720" type="line"/>
    </contour>
  </outline>
</glyph>
<glyph name="Z" format="1">
  <advance width="780"/>
  <unicode hex="005A"/>
  <outline>
    <contour>
      <point x="220" y="100" type="line"/>
      <point x="580" y="60" type="line"/>
      <point x="680" y="240" type="line"/>
      <point x="720" y="240" type="line"/>
      <point x="680" y="-40" type="line"/>
      <point x="600" y="0" type="line"/>
      <point x="40" y="0" type="line"/>
      <point x="40" y="40" type="line"/>
      <point x="500" y="740" type="line"/>
      <point x="220" y="740" type="line"/>
      <point x="120" y="600" type="line"/>
      <point x="80" y="600" type="line"/>
      <point x="120" y="840" type="line"/>
      <point x="280" y="800" type="line"/>
      <point x="760" y="800" type="line"/>
    </contour>
  </outline>
</glyph>
<glyph name="a" format="1">
  <advance width="620"/>
  <unicode hex="0061"/>
  <outline>
    <contour>
      <point x="300" y="560" type="line"/>
      <point x="460" y="520" type="line"/>
      <point x="520" y="440" type="line"/>
      <point x="520" y="120" type="line"/>
      <point x="580" y="160" type="line"/>
      <point x="580" y="80" type="line"/>
      <point x="500" y="0" type="line"/>
      <point x="460" y="0" type="line"/>
      <point x="420" y="80" type="line"/>
      <point x="300" y="0" type="line"/>
      <point x="220" y="0" type="line"/>
      <point x="120" y="40" type="line"/>
      <point x="40" y="160" type="line"/>
      <point x="80" y="280" type="line"/>
      <point x="140" y="320" type="line"/>
      <point x="360" y="360" type="line"/>
      <point x="360" y="440" type="line"/>
      <point x="340" y="480" type="line"/>
      <point x="240" y="480" type="line"/>
      <point x="180" y="380" type="line"/>
      <point x="100" y="480" type="line"/>
    </contour>
    <contour>
      <point x="360" y="300" type="line"/>
      <point x="220" y="220" type="line"/>
      <point x="200" y="160" type="line"/>
      <point x="260" y="60" type="line"/>
      <point x="340" y="100" type="line"/>
      <point x="360" y="160" type="line"/>
    </contour>
  </outline>
</glyph>
<glyph name="b" format="1">
  <advance width="640"/>
  <unicode hex="0062"/>
  <outline>
    <contour>
      <point x="100" y="700" type="line"/>
      <point x="20" y="760" type="line"/>
      <point x="260" y="840" type="line"/>
      <point x="260" y="540" type="line"/>
      <point x="320" y="560" type="line"/>
      <point x="400" y="560" type="line"/>
      <point x="540" y="520" type="line"/>
      <point x="620" y="360" type="line"/>
      <point x="620" y="200" type="line"/>
      <point x="540" y="40" type="line"/>
      <point x="400" y="0" type="line"/>
      <point x="320" y="0" type="line"/>
      <point x="240" y="40" type="line"/>
      <point x="200" y="80" type="line"/>
      <point x="160" y="0" type="line"/>
      <point x="20" y="80" type="line"/>
      <point x="100" y="140" type="line"/>
    </contour>
    <contour>
      <point x="360" y="500" type="line"/>
      <point x="300" y="460" type="line"/>
      <point x="260" y="360" type="line"/>
      <point x="260" y="200" type="line"/>
      <point x="280" y="100" type="line"/>
      <point x="360" y="60" type="line"/>
      <point x="420" y="100" type="line"/>
      <point x="460" y="280" type="line"/>
      <point x="420" y="460" type="line"/>
    </contour>
  </outline>
</glyph>
<glyph name="c" format="1">
  <advance width="540"/>
  <unicode hex="0063"/>
  <outline>
    <contour>
      <point x="340" y="480" type="line"/>
      <point x="280" y="500" type="line"/>
      <point x="220" y="460" type="line"/>
      <point x="180" y="320" type="line"/>
      <point x="180" y="240" type="line"/>
      <point x="220" y="100" type="line"/>
      <point x="320" y="60" type="line"/>
      <point x="400" y="100" type="line"/>
      <point x="440" y="180" type="line"/>
      <point x="520" y="120" type="line"/>
      <point x="440" y="40" type="line"/>
      <point x="360" y="0" type="line"/>
      <point x="240" y="0" type="line"/>
      <point x="120" y="40" type="line"/>
      <point x="20" y="200" type="line"/>
      <point x="20" y="360" type="line"/>
      <point x="100" y="520" type="line"/>
      <point x="240" y="560" type="line"/>
      <point x="320" y="560" type="line"/>
      <point x="440" y="520" type="line"/>
      <point x="480" y="440" type="line"/>
      <point x="400" y="360" type="line"/>
      <point x="340" y="360" type="line"/>
    </contour>
  </outline>
</glyph>
<glyph name="d" format="1">
  <advance width="660"/>
  <unicode hex="0064"/>
  <outline>
    <contour>
      <point x="540" y="840" type="line"/>
      <point x="540" y="120" type="line"/>
      <point x="580" y="120" type="line"/>
      <point x="640" y="160" type="line"/>
      <point x="640" y="80" type="line"/>
      <point x="560" y="0" type="line"/>
      <point x="460" y="0" type="line"/>
      <point x="400" y="60" type="line"/>
      <point x="380" y="40" type="line"/>
      <point x="320" y="0" type="line"/>
      <point x="240" y="0" type="line"/>
      <point x="100" y="60" type="line"/>
      <point x="20" y="200" type="line"/>
      <point x="20" y="360" type="line"/>
      <point x="100" y="520" type="line"/>
      <point x="200" y="560" type="line"/>
      <point x="300" y="560" type="line"/>
      <point x="380" y="540" type="line"/>
      <point x="380" y="700" type="line"/>
      <point x="320" y="760" type="line"/>
    </contour>
    <contour>
      <point x="280" y="500" type="line"/>
      <point x="220" y="460" type="line"/>
      <point x="180" y="280" type="line"/>
      <point x="220" y="100" type="line"/>
      <point x="280" y="60" type="line"/>
      <point x="340" y="100" type="line"/>
      <point x="380" y="180" type="line"/>
      <point x="380" y="380" type="line"/>
      <point x="340" y="460" type="line"/>
    </contour>
  </outline>
</glyph>
<glyph name="e" format="1">
  <advance width="600"/>
  <unicode hex="0065"/>
  <outline>
    <contour>
      <point x="260" y="560" type="line"/>
      <point x="340" y="560" type="line"/>
      <point x="460" y="540" type="line"/>
      <point x="560" y="400" type="line"/>
      <point x="520" y="320" type="line"/>
      <point x="200" y="240" type="line"/>
      <point x="220" y="100" type="line"/>
      <point x="340" y="60" type="line"/>
      <point x="420" y="100" type="line"/>
      <point x="500" y="180" type="line"/>
      <point x="560" y="120" type="line"/>
      <point x="460" y="40" type="line"/>
      <point x="380" y="0" type="line"/>
      <point x="260" y="0" type="line"/>
      <point x="120" y="40" type="line"/>
      <point x="40" y="200" type="line"/>
      <point x="40" y="360" type="line"/>
      <point x="120" y="520" type="line"/>
    </contour>
    <contour>
      <point x="300" y="500" type="line"/>
      <point x="220" y="460" type="line"/>
      <point x="200" y="300" type="line"/>
      <point x="360" y="360" type="line"/>
      <point x="360" y="460" type="line"/>
    </contour>
  </outline>
</glyph>
<glyph name="f" format="1">
  <advance width="440"/>
  <unicode hex="0066"/>
  <outline>
    <contour>
      <point x="260" y="560" type="line"/>
      <point x="380" y="560" type="line"/>
      <point x="380" y="500" type="line"/>
      <point x="320" y="500" type="line"/>
      <point x="260" y="460" type="line"/>
      <point x="260" y="80" type="line"/>
      <point x="360" y="0" type="line"/>
      <point x="20" y="0" type="line"/>
      <point x="100" y="80" type="line"/>
      <point x="100" y="460" type="line"/>
      <point x="40" y="500" type="line"/>
      <point x="40" y="560" type="line"/>
      <point x="100" y="560" type="line"/>
      <point x="100" y="680" type="line"/>
      <point x="140" y="760" type="line"/>
      <point x="180" y="800" type="line"/>
      <point x="280" y="840" type="line"/>
      <point x="460" y="800" type="line"/>
      <point x="460" y="680" type="line"/>
      <point x="400" y="620" type="line"/>
      <point x="320" y="660" type="line"/>
      <point x="360" y="740" type="line"/>
      <point x="300" y="780" type="line"/>
      <point x="260" y="720" type="line"/>
    </contour>
  </outline>
</glyph>
<glyph name="g" format="1">
  <advance width="660"/>
  <unicode hex="0067"/>
  <outline>
    <contour>
      <point x="600" y="580" type="line"/>
      <point x="640" y="440" type="line"/>
      <point x="580" y="440" type="line"/>
      <point x="500" y="480" type="line"/>
      <point x="560" y="400" type="line"/>
      <point x="560" y="320" type="line"/>
      <point x="500" y="220" type="line"/>
      <point x="380" y="160" type="line"/>
      <point x="280" y="120" type="line"/>
      <point x="480" y="40" type="line"/>
      <point x="600" y="-80" type="line"/>
      <point x="600" y="-160" type="line"/>
      <point x="520" y="-280" type="line"/>
      <point x="380" y="-320" type="line"/>
      <point x="300" y="-320" type="line"/>
      <point x="120" y="-280" type="line"/>
      <point x="40" y="-160" type="line"/>
      <point x="40" y="-60" type="line"/>
      <point x="220" y="40" type="line"/>
      <point x="120" y="80" type="line"/>
      <point x="160" y="120" type="line"/>
      <point x="240" y="160" type="line"/>
      <point x="120" y="200" type="line"/>
      <point x="40" y="320" type="line"/>
      <point x="40" y="400" type="line"/>
      <point x="140" y="520" type="line"/>
      <point x="260" y="560" type="line"/>
      <point x="340" y="560" type="line"/>
      <point x="460" y="520" type="line"/>
    </contour>
    <contour>
      <point x="300" y="500" type="line"/>
      <point x="240" y="480" type="line"/>
      <point x="200" y="360" type="line"/>
      <point x="240" y="240" type="line"/>
      <point x="300" y="220" type="line"/>
      <point x="360" y="240" type="line"/>
      <point x="400" y="360" type="line"/>
      <point x="360" y="480" type="line"/>
    </contour>
    <contour>
      <point x="260" y="-20" type="line"/>
      <point x="200" y="-80" type="line"/>
      <point x="200" y="-160" type="line"/>
      <point x="260" y="-220" type="line"/>
      <point x="380" y="-260" type="line"/>
      <point x="440" y="-200" type="line"/>
      <point x="440" y="-120" type="line"/>
      <point x="380" y="-60" type="line"/>
    </contour>
  </outline>
</glyph>
<glyph name="h" format="1">
  <advance width="680"/>
  <unicode hex="0068"/>
  <outline>
    <contour>
      <point x="20" y="760" type="line"/>
      <point x="260" y="840" type="line"/>
      <point x="260" y="500" type="line"/>
      <point x="280" y="540" type="line"/>
      <point x="360" y="560" type="line"/>
      <point x="500" y="540" type="line"/>
      <point x="580" y="440" type="line"/>
      <point x="580" y="80" type="line"/>
      <point x="660" y="0" type="line"/>
      <point x="340" y="0" type="line"/>
      <point x="420" y="80" type="line"/>
      <point x="420" y="420" type="line"/>
      <point x="380" y="460" type="line"/>
      <point x="320" y="460" type="line"/>
      <point x="260" y="360" type="line"/>
      <point x="260" y="80" type="line"/>
      <point x="340" y="0" type="line"/>
      <point x="20" y="0" type="line"/>
      <point x="100" y="80" type="line"/>
      <point x="100" y="700" type="line"/>
    </contour>
  </outline>
</glyph>
<glyph name="i" format="1">
  <advance width="360"/>
  <unicode hex="0069"/>
  <outline>
    <contour>
      <point x="20" y="480" type="line"/>
      <point x="260" y="560" type="line"/>
      <point x="260" y="80" type="line"/>
      <point x="340" y="0" type="line"/>
      <point x="20" y="0" type="line"/>
      <point x="100" y="80" type="line"/>
      <point x="100" y="420" type="line"/>
    </contour>
    <contour>
      <point x="160" y="620" type="line"/>
      <point x="60" y="680" type="line"/>
      <point x="60" y="720" type="line"/>
      <point x="120" y="820" type="line"/>
      <point x="160" y="820" type="line"/>
      <point x="260" y="760" type="line"/>
      <point x="260" y="720" type="line"/>
      <point x="200" y="620" type="line"/>
    </contour>
  </outline>
</glyph>
<glyph name="j" format="1">
  <advance width="340"/>
  <unicode hex="006A"/>
  <outline>
    <contour>
      <point x="40" y="480" type="line"/>
      <point x="280" y="560" type="line"/>
      <point x="280" y="-40" type="line"/>
      <point x="200" y="-220" type="line"/>
      <point x="20" y="-320" type="line"/>
      <point x="-20" y="-280" type="line"/>
      <point x="80" y="-160" type="line"/>
      <point x="120" y="-40" type="line"/>
      <point x="120" y="420" type="line"/>
    </contour>
    <contour>
      <point x="180" y="620" type="line"/>
      <point x="80" y="680" type="line"/>
      <point x="80" y="720" type="line"/>
      <point x="140" y="820" type="line"/>
      <point x="180" y="820" type="line"/>
      <point x="280" y="760" type="line"/>
      <point x="280" y="720" type="line"/>
      <point x="220" y="620" type="line"/>
    </contour>
  </outline>
</glyph>
<glyph name="k" format="1">
  <advance width="660"/>
  <unicode hex="006B"/>
  <outline>
    <contour>
      <point x="260" y="80" type="line"/>
      <point x="340" y="0" type="line"/>
      <point x="20" y="0" type="line"/>
      <point x="100" y="80" type="line"/>
      <point x="100" y="700" type="line"/>
      <point x="20" y="760" type="line"/>
      <point x="260" y="840" type="line"/>
    </contour>
    <contour>
      <point x="240" y="280" type="line"/>
      <point x="400" y="440" type="line"/>
      <point x="320" y="520" type="line"/>
      <point x="600" y="520" type="line"/>
      <point x="400" y="320" type="line"/>
      <point x="640" y="0" type="line"/>
      <point x="560" y="-40" type="line"/>
      <point x="440" y="40" type="line"/>
      <point x="300" y="220" type="line"/>
      <point x="240" y="120" type="line"/>
    </contour>
  </outline>
</glyph>
<glyph name="l" format="1">
  <advance width="360"/>
  <unicode hex="006C"/>
  <outline>
    <contour>
      <point x="20" y="760" type="line"/>
      <point x="260" y="840" type="line"/>
      <point x="260" y="80" type="line"/>
      <point x="340" y="0" type="line"/>
      <point x="20" y="0" type="line"/>
      <point x="100" y="80" type="line"/>
      <point x="100" y="700" type="line"/>
    </contour>
  </outline>
</glyph>
<glyph name="m" format="1">
  <advance width="1040"/>
  <unicode hex="006D"/>
  <outline>
    <contour>
      <point x="0.0" y="0.0" type="line"/>
      <point x="80.0" y="80.0" type="line"/>
      <point x="80.0" y="420.0" type="line"/>
      <point x="0.0" y="480.0" type="line"/>
      <point x="240" y="560" type="line"/>
      <point x="180" y="380" type="line"/>
      <point x="180" y="360" type="line"/>
      <point x="320" y="540" type="line"/>
      <point x="400.0" y="560.0" type="line"/>
      <point x="560.0" y="520.0" type="line"/>
      <point x="600.0" y="440.0" type="line"/>
      <point x="680.0" y="520.0" type="line"/>
      <point x="760.0" y="560.0" type="line"/>
      <point x="920.0" y="520.0" type="line"/>
      <point x="960.0" y="440.0" type="line"/>
      <point x="960.0" y="80.0" type="line"/>
      <point x="1040.0" y="0.0" type="line"/>
      <point x="720.0" y="0.0" type="line"/>
      <point x="800.0" y="80.0" type="line"/>
      <point x="800.0" y="400.0" type="line"/>
      <point x="760.0" y="440.0" type="line"/>
      <point x="720.0" y="440.0" type="line"/>
      <point x="600.0" y="320.0" type="line"/>
      <point x="600.0" y="80.0" type="line"/>
      <point x="680.0" y="0.0" type="line"/>
      <point x="360.0" y="0.0" type="line"/>
      <point x="440.0" y="80.0" type="line"/>
      <point x="440.0" y="400.0" type="line"/>
      <point x="400.0" y="440.0" type="line"/>
      <point x="360.0" y="440.0" type="line"/>
      <point x="240.0" y="320.0" type="line"/>
      <point x="240.0" y="80.0" type="line"/>
      <point x="320.0" y="0.0" type="line"/>
    </contour>
  </outline>
</glyph>
<glyph name="n" format="1">
  <advance width="720"/>
  <unicode hex="006E"/>
  <outline>
    <contour>
      <point x="20" y="0" type="line"/>
      <point x="100" y="80" type="line"/>
      <point x="100" y="420" type="line"/>
      <point x="20" y="480" type="line"/>
      <point x="260" y="560" type="line"/>
      <point x="240" y="440" type="line"/>
      <point x="320" y="520" type="line"/>
      <point x="400" y="560" type="line"/>
      <point x="580" y="540" type="line"/>
      <point x="620" y="440" type="line"/>
      <point x="620" y="80" type="line"/>
      <point x="700" y="0" type="line"/>
      <point x="380" y="0" type="line"/>
      <point x="460" y="80" type="line"/>
      <point x="460" y="400" type="line"/>
      <point x="420" y="460" type="line"/>
      <point x="360" y="460" type="line"/>
      <point x="260" y="340" type="line"/>
      <point x="260" y="80" type="line"/>
      <point x="340" y="0" type="line"/>
    </contour>
  </outline>
</glyph>
<glyph name="o" format="1">
  <advance width="600"/>
  <unicode hex="006F"/>
  <outline>
    <contour>
      <point x="260" y="560" type="line"/>
      <point x="340" y="560" type="line"/>
      <point x="480" y="500" type="line"/>
      <point x="560" y="360" type="line"/>
      <point x="560" y="200" type="line"/>
      <point x="480" y="60" type="line"/>
      <point x="340" y="0" type="line"/>
      <point x="260" y="0" type="line"/>
      <point x="120" y="60" type="line"/>
      <point x="40" y="200" type="line"/>
      <point x="40" y="360" type="line"/>
      <point x="120" y="500" type="line"/>
    </contour>
    <contour>
      <point x="300" y="500" type="line"/>
      <point x="240" y="480" type="line"/>
      <point x="200" y="280" type="line"/>
      <point x="240" y="80" type="line"/>
      <point x="300" y="60" type="line"/>
      <point x="360" y="80" type="line"/>
      <point x="400" y="280" type="line"/>
      <point x="360" y="480" type="line"/>
    </contour>
  </outline>
</glyph>
<glyph name="p" format="1">
  <advance width="640"/>
  <unicode hex="0070"/>
  <outline>
    <contour>
      <point x="400" y="560" type="line"/>
      <point x="520" y="520" type="line"/>
      <point x="620" y="360" type="line"/>
      <point x="620" y="200" type="line"/>
      <point x="520" y="40" type="line"/>
      <point x="400" y="0" type="line"/>
      <point x="320" y="0" type="line"/>
      <point x="260" y="20" type="line"/>
      <point x="260" y="-240" type="line"/>
      <point x="340" y="-320" type="line"/>
      <point x="20" y="-320" type="line"/>
      <point x="100" y="-240" type="line"/>
      <point x="100" y="420" type="line"/>
      <point x="20" y="480" type="line"/>
      <point x="240" y="560" type="line"/>
      <point x="200" y="400" type="line"/>
      <point x="300" y="520" type="line"/>
    </contour>
    <contour>
      <point x="360" y="460" type="line"/>
      <point x="260" y="340" type="line"/>
      <point x="260" y="160" type="line"/>
      <point x="300" y="100" type="line"/>
      <point x="360" y="60" type="line"/>
      <point x="420" y="100" type="line"/>
      <point x="460" y="280" type="line"/>
      <point x="420" y="460" type="line"/>
    </contour>
  </outline>
</glyph>
<glyph name="q" format="1">
  <advance width="640"/>
  <unicode hex="0071"/>
  <outline>
    <contour>
      <point x="620" y="480" type="line"/>
      <point x="540" y="420" type="line"/>
      <point x="540" y="-240" type="line"/>
      <point x="620" y="-320" type="line"/>
      <point x="300" y="-320" type="line"/>
      <point x="380" y="-240" type="line"/>
      <point x="380" y="20" type="line"/>
      <point x="320" y="-20" type="line"/>
      <point x="240" y="-20" type="line"/>
      <point x="100" y="40" type="line"/>
      <point x="20" y="200" type="line"/>
      <point x="20" y="360" type="line"/>
      <point x="100" y="520" type="line"/>
      <point x="280" y="560" type="line"/>
      <point x="380" y="520" type="line"/>
      <point x="440" y="460" type="line"/>
      <point x="460" y="560" type="line"/>
    </contour>
    <contour>
      <point x="320" y="480" type="line"/>
      <point x="220" y="480" type="line"/>
      <point x="180" y="280" type="line"/>
      <point x="220" y="100" type="line"/>
      <point x="280" y="60" type="line"/>
      <point x="340" y="80" type="line"/>
      <point x="380" y="160" type="line"/>
      <point x="380" y="400" type="line"/>
    </contour>
  </outline>
</glyph>
<glyph name="r" format="1">
  <advance width="560"/>
  <unicode hex="0072"/>
  <outline>
    <contour>
      <point x="300" y="560" type="line"/>
      <point x="240" y="380" type="line"/>
      <point x="240" y="360" type="line"/>
      <point x="380" y="540" type="line"/>
      <point x="440" y="560" type="line"/>
      <point x="540" y="540" type="line"/>
      <point x="540" y="440" type="line"/>
      <point x="460" y="320" type="line"/>
      <point x="420" y="320" type="line"/>
      <point x="420" y="440" type="line"/>
      <point x="380" y="440" type="line"/>
      <point x="300" y="360" type="line"/>
      <point x="300" y="80" type="line"/>
      <point x="380" y="0" type="line"/>
      <point x="60" y="0" type="line"/>
      <point x="140" y="80" type="line" smooth="yes"/>
      <point x="140" y="420" type="line"/>
      <point x="20" y="480" type="line"/>
    </contour>
  </outline>
</glyph>
<glyph name="s" format="1">
  <advance width="460"/>
  <unicode hex="0073"/>
  <outline>
    <contour>
      <point x="420" y="360" type="line"/>
      <point x="380" y="360" type="line"/>
      <point x="300" y="480" type="line"/>
      <point x="220" y="500" type="line" smooth="yes"/>
      <point x="160" y="480" type="line"/>
      <point x="160" y="420" type="line"/>
      <point x="380" y="280" type="line"/>
      <point x="440" y="160" type="line"/>
      <point x="400" y="40" type="line"/>
      <point x="320" y="0" type="line"/>
      <point x="180" y="0" type="line"/>
      <point x="100" y="40" type="line"/>
      <point x="60" y="0" type="line"/>
      <point x="20" y="200" type="line"/>
      <point x="60" y="200" type="line"/>
      <point x="120" y="100" type="line"/>
      <point x="200" y="60" type="line"/>
      <point x="300" y="80" type="line"/>
      <point x="300" y="140" type="line"/>
      <point x="80" y="280" type="line"/>
      <point x="20" y="400" type="line"/>
      <point x="80" y="540" type="line"/>
      <point x="240" y="560" type="line"/>
      <point x="320" y="520" type="line"/>
      <point x="380" y="560" type="line"/>
    </contour>
    <contour>
      <point x="-180" y="360" type="line"/>
      <point x="-220" y="360" type="line"/>
      <point x="-300" y="480" type="line"/>
      <point x="-380" y="500" type="line" smooth="yes"/>
      <point x="-440" y="480" type="line"/>
      <point x="-440" y="420" type="line"/>
      <point x="-220" y="280" type="line"/>
      <point x="-160" y="160" type="line"/>
      <point x="-200" y="40" type="line"/>
      <point x="-280" y="0" type="line"/>
      <point x="-420" y="0" type="line"/>
      <point x="-500" y="40" type="line"/>
      <point x="-540" y="0" type="line"/>
      <point x="-580" y="200" type="line"/>
      <point x="-540" y="200" type="line"/>
      <point x="-480" y="100" type="line"/>
      <point x="-360" y="60" type="line"/>
      <point x="-280" y="100" type="line"/>
      <point x="-300" y="140" type="line"/>
      <point x="-520" y="280" type="line"/>
      <point x="-580" y="400" type="line"/>
      <point x="-520" y="540" type="line"/>
      <point x="-360" y="560" type="line"/>
      <point x="-280" y="520" type="line"/>
      <point x="-220" y="560" type="line"/>
    </contour>
  </outline>
</glyph>
<glyph name="t" format="1">
  <advance width="420"/>
  <unicode hex="0074"/>
  <outline>
    <contour>
      <point x="240" y="680" type="line"/>
      <point x="240" y="540" type="line"/>
      <point x="360" y="540" type="line"/>
      <point x="360" y="480" type="line"/>
      <point x="240" y="440" type="line"/>
      <point x="240" y="120" type="line"/>
      <point x="260" y="100" type="line"/>
      <point x="340" y="180" type="line"/>
      <point x="400" y="120" type="line"/>
      <point x="320" y="40" type="line"/>
      <point x="220" y="0" type="line"/>
      <point x="160" y="0" type="line"/>
      <point x="80" y="120" type="line"/>
      <point x="80" y="440" type="line"/>
      <point x="20" y="460" type="line"/>
      <point x="20" y="540" type="line"/>
      <point x="80" y="560" type="line"/>
      <point x="120" y="600" type="line"/>
      <point x="160" y="680" type="line"/>
    </contour>
  </outline>
</glyph>
<glyph name="u" format="1">
  <advance width="660"/>
  <unicode hex="0075"/>
  <outline>
    <contour>
      <point x="640" y="80" type="line"/>
      <point x="560" y="0" type="line"/>
      <point x="520" y="0" type="line"/>
      <point x="480" y="80" type="line"/>
      <point x="360" y="0" type="line"/>
      <point x="280" y="0" type="line"/>
      <point x="160" y="40" type="line"/>
      <point x="100" y="120" type="line"/>
      <point x="100" y="460" type="line"/>
      <point x="20" y="520" type="line"/>
      <point x="260" y="560" type="line"/>
      <point x="260" y="140" type="line"/>
      <point x="280" y="100" type="line"/>
      <point x="360" y="100" type="line"/>
      <point x="400" y="140" type="line"/>
      <point x="420" y="200" type="line"/>
      <point x="420" y="460" type="line"/>
      <point x="340" y="520" type="line"/>
      <point x="580" y="560" type="line"/>
      <point x="580" y="120" type="line"/>
      <point x="640" y="160" type="line"/>
    </contour>
  </outline>
</glyph>
<glyph name="v" format="1">
  <advance width="720"/>
  <unicode hex="0076"/>
  <outline>
    <contour>
      <point x="420" y="0" type="line"/>
      <point x="260" y="0" type="line"/>
      <point x="80" y="460" type="line"/>
      <point x="0" y="540" type="line"/>
      <point x="340" y="540" type="line"/>
      <point x="260" y="460" type="line"/>
      <point x="400" y="100" type="line"/>
      <point x="500" y="460" type="line"/>
      <point x="420" y="540" type="line"/>
      <point x="720" y="540" type="line"/>
      <point x="640" y="460" type="line"/>
      <point x="460" y="80" type="line"/>
    </contour>
  </outline>
</glyph>
<glyph name="w" format="1">
  <advance width="1000"/>
  <unicode hex="0077"/>
  <outline>
    <contour>
      <point x="480" y="260" type="line"/>
      <point x="420" y="80" type="line"/>
      <point x="380" y="0" type="line"/>
      <point x="240" y="0" type="line"/>
      <point x="80" y="460" type="line"/>
      <point x="0" y="540" type="line"/>
      <point x="340" y="540" type="line"/>
      <point x="260" y="460" type="line"/>
      <point x="360" y="100" type="line"/>
      <point x="480" y="480" type="line"/>
      <point x="580" y="520" type="line"/>
      <point x="700" y="100" type="line"/>
      <point x="800" y="460" type="line"/>
      <point x="720" y="540" type="line"/>
      <point x="1000" y="540" type="line"/>
      <point x="920" y="460" type="line"/>
      <point x="760" y="80" type="line"/>
      <point x="720" y="0" type="line"/>
      <point x="580" y="0" type="line"/>
    </contour>
  </outline>
</glyph>
<glyph name="x" format="1">
  <advance width="680"/>
  <unicode hex="0078"/>
  <outline>
    <contour>
      <point x="300" y="0" type="line"/>
      <point x="240" y="80" type="line"/>
      <point x="320" y="200" type="line"/>
      <point x="420" y="80" type="line"/>
      <point x="360" y="0" type="line"/>
      <point x="660" y="0" type="line"/>
      <point x="580" y="80" type="line"/>
      <point x="420" y="260" type="line"/>
      <point x="660" y="540" type="line"/>
      <point x="360" y="540" type="line"/>
      <point x="420" y="460" type="line"/>
      <point x="360" y="340" type="line"/>
      <point x="260" y="460" type="line"/>
      <point x="320" y="540" type="line"/>
      <point x="20" y="540" type="line"/>
      <point x="80" y="480" type="line"/>
      <point x="260" y="280" type="line"/>
      <point x="20" y="0" type="line"/>
    </contour>
  </outline>
</glyph>
<glyph name="y" format="1">
  <advance width="700"/>
  <unicode hex="0079"/>
  <outline>
    <contour>
      <point x="280" y="40" type="line"/>
      <point x="80" y="460" type="line"/>
      <point x="0" y="540" type="line"/>
      <point x="320" y="540" type="line"/>
      <point x="240" y="460" type="line"/>
      <point x="340" y="160" type="line"/>
      <point x="480" y="460" type="line"/>
      <point x="400" y="540" type="line"/>
      <point x="700" y="540" type="line"/>
      <point x="620" y="460" type="line"/>
      <point x="220" y="-320" type="line"/>
      <point x="100" y="-320" type="line"/>
      <point x="40" y="-280" type="line"/>
    </contour>
  </outline>
</glyph>
<glyph name="z" format="1">
  <advance width="560"/>
  <unicode hex="007A"/>
  <outline>
    <contour>
      <point x="400" y="60" type="line"/>
      <point x="480" y="180" type="line"/>
      <point x="540" y="180" type="line"/>
      <point x="500" y="0" type="line"/>
      <point x="20" y="0" type="line"/>
      <point x="20" y="80" type="line"/>
      <point x="360" y="480" type="line"/>
      <point x="180" y="480" type="line"/>
      <point x="100" y="340" type="line"/>
      <point x="40" y="340" type="line"/>
      <point x="80" y="580" type="line"/>
      <point x="120" y="540" type="line"/>
      <point x="540" y="540" type="line"/>
      <point x="540" y="500" type="line"/>
      <point x="200" y="100" type="line"/>
    </contour>
  </outline>
</glyph>
<glyph name="ccedilla" format="1">
  <advance width="520"/>
  <unicode hex="00E7"/>
  <outline>
    <contour>
      <point x="200" y="0" type="line"/>
      <point x="180" y="-40" type="line"/>
      <point x="180" y="-80" type="line"/>
      <point x="300" y="-120" type="line"/>
      <point x="280" y="-180" type="line"/>
      <point x="240" y="-180" type="line"/>
      <point x="200" y="-120" type="line"/>
      <point x="140" y="-160" type="line"/>
      <point x="180" y="-240" type="line"/>
      <point x="340" y="-240" type="line"/>
      <point x="380" y="-160" type="line"/>
      <point x="380" y="-80" type="line"/>
      <point x="260" y="-40" type="line"/>
      <point x="280" y="0" type="line"/>
      <point x="340" y="0" type="line"/>
      <point x="420" y="40" type="line"/>
      <point x="500" y="120" type="line"/>
      <point x="420" y="180" type="line"/>
      <point x="380" y="100" type="line"/>
      <point x="300" y="60" type="line"/>
      <point x="200" y="100" type="line"/>
      <point x="160" y="240" type="line"/>
      <point x="160" y="320" type="line"/>
      <point x="200" y="460" type="line"/>
      <point x="260" y="500" type="line"/>
      <point x="320" y="480" type="line"/>
      <point x="320" y="360" type="line"/>
      <point x="380" y="360" type="line"/>
      <point x="460" y="440" type="line"/>
      <point x="420" y="520" type="line"/>
      <point x="300" y="560" type="line"/>
      <point x="220" y="560" type="line"/>
      <point x="80" y="520" type="line"/>
      <point x="0" y="360" type="line"/>
      <point x="0" y="200" type="line"/>
      <point x="100" y="40" type="line"/>
    </contour>
  </outline>
</glyph>
